# Tiled2Unity generated file. Do not modify by hand.
# Wavefront file for 'TestMundo_mesh_0003.obj'

# Vertices (Count = 184)
v -62 -45 0
v -63 -45 0
v -63 -44 0
v -62 -44 0
v -63 -45 0
v -64 -45 0
v -64 -44 0
v -63 -44 0
v -64 -45 0
v -65 -45 0
v -65 -44 0
v -64 -44 0
v -39 -46 0
v -40 -46 0
v -40 -45 0
v -39 -45 0
v -40 -46 0
v -41 -46 0
v -41 -45 0
v -40 -45 0
v -41 -46 0
v -42 -46 0
v -42 -45 0
v -41 -45 0
v -42 -46 0
v -43 -46 0
v -43 -45 0
v -42 -45 0
v -62 -46 0
v -63 -46 0
v -63 -45 0
v -62 -45 0
v -63 -46 0
v -64 -46 0
v -64 -45 0
v -63 -45 0
v -64 -46 0
v -65 -46 0
v -65 -45 0
v -64 -45 0
v -38 -47 0
v -39 -47 0
v -39 -46 0
v -38 -46 0
v -39 -47 0
v -40 -47 0
v -40 -46 0
v -39 -46 0
v -42 -47 0
v -43 -47 0
v -43 -46 0
v -42 -46 0
v -62 -47 0
v -63 -47 0
v -63 -46 0
v -62 -46 0
v -63 -47 0
v -64 -47 0
v -64 -46 0
v -63 -46 0
v -64 -47 0
v -65 -47 0
v -65 -46 0
v -64 -46 0
v -37 -48 0
v -38 -48 0
v -38 -47 0
v -37 -47 0
v -38 -48 0
v -39 -48 0
v -39 -47 0
v -38 -47 0
v -42 -48 0
v -43 -48 0
v -43 -47 0
v -42 -47 0
v -36 -49 0
v -37 -49 0
v -37 -48 0
v -36 -48 0
v -37 -49 0
v -38 -49 0
v -38 -48 0
v -37 -48 0
v -42 -49 0
v -43 -49 0
v -43 -48 0
v -42 -48 0
v -36 -50 0
v -37 -50 0
v -37 -49 0
v -36 -49 0
v -42 -50 0
v -43 -50 0
v -43 -49 0
v -42 -49 0
v -47 -50 0
v -48 -50 0
v -48 -49 0
v -47 -49 0
v -36 -51 0
v -37 -51 0
v -37 -50 0
v -36 -50 0
v -42 -51 0
v -43 -51 0
v -43 -50 0
v -42 -50 0
v -36 -52 0
v -37 -52 0
v -37 -51 0
v -36 -51 0
v -42 -52 0
v -43 -52 0
v -43 -51 0
v -42 -51 0
v -36 -53 0
v -37 -53 0
v -37 -52 0
v -36 -52 0
v -37 -53 0
v -38 -53 0
v -38 -52 0
v -37 -52 0
v -38 -53 0
v -39 -53 0
v -39 -52 0
v -38 -52 0
v -40 -53 0
v -41 -53 0
v -41 -52 0
v -40 -52 0
v -41 -53 0
v -42 -53 0
v -42 -52 0
v -41 -52 0
v -42 -53 0
v -43 -53 0
v -43 -52 0
v -42 -52 0
v -56 -53 0
v -57 -53 0
v -57 -52 0
v -56 -52 0
v -37 -56 0
v -38 -56 0
v -38 -55 0
v -37 -55 0
v -49 -58 0
v -50 -58 0
v -50 -57 0
v -49 -57 0
v -50 -58 0
v -51 -58 0
v -51 -57 0
v -50 -57 0
v -51 -58 0
v -52 -58 0
v -52 -57 0
v -51 -57 0
v -49 -59 0
v -50 -59 0
v -50 -58 0
v -49 -58 0
v -50 -59 0
v -51 -59 0
v -51 -58 0
v -50 -58 0
v -51 -59 0
v -52 -59 0
v -52 -58 0
v -51 -58 0
v -49 -60 0
v -50 -60 0
v -50 -59 0
v -49 -59 0
v -50 -60 0
v -51 -60 0
v -51 -59 0
v -50 -59 0
v -51 -60 0
v -52 -60 0
v -52 -59 0
v -51 -59 0

# Texture cooridinates (Count = 34)
vt 0.6875 0.125
vt 0.75 0.125
vt 0.75 0.1875
vt 0.6875 0.1875
vt 0.8125 0.125
vt 0.8125 0.1875
vt 0.875 0.125
vt 0.875 0.1875
vt 0.6875 0.0625
vt 0.75 0.0625
vt 0.8125 0.0625
vt 0.875 0.0625
vt 0.9375 0.0625
vt 0.9375 0.125
vt 0.6875 0
vt 0.75 0
vt 0.8125 0
vt 0.875 0
vt 0.1875 0.625
vt 0.25 0.625
vt 0.25 0.6875
vt 0.1875 0.6875
vt 0.75 0.75
vt 0.8125 0.75
vt 0.8125 0.8125
vt 0.75 0.8125
vt 0.1875 0.8125
vt 0.25 0.8125
vt 0.25 0.875
vt 0.1875 0.875
vt 0.3125 0.8125
vt 0.3125 0.875
vt 0.375 0.8125
vt 0.375 0.875

# Normal
vn 0 0 -1

# Mesh description
g TestMundo_mesh_0003

# Faces
f 1/1/1 2/2/1 3/3/1 4/4/1
f 5/2/1 6/5/1 7/6/1 8/3/1
f 9/5/1 10/7/1 11/8/1 12/6/1
f 13/1/1 14/2/1 15/3/1 16/4/1
f 17/2/1 18/5/1 19/6/1 20/3/1
f 21/2/1 22/5/1 23/6/1 24/3/1
f 25/5/1 26/7/1 27/8/1 28/6/1
f 29/9/1 30/10/1 31/2/1 32/1/1
f 33/10/1 34/11/1 35/5/1 36/2/1
f 37/11/1 38/12/1 39/7/1 40/5/1
f 41/1/1 42/2/1 43/3/1 44/4/1
f 45/12/1 46/13/1 47/14/1 48/7/1
f 49/11/1 50/12/1 51/7/1 52/5/1
f 53/15/1 54/16/1 55/10/1 56/9/1
f 57/16/1 58/17/1 59/11/1 60/10/1
f 61/17/1 62/18/1 63/12/1 64/11/1
f 65/1/1 66/2/1 67/3/1 68/4/1
f 69/12/1 70/13/1 71/14/1 72/7/1
f 73/11/1 74/12/1 75/7/1 76/5/1
f 77/1/1 78/2/1 79/3/1 80/4/1
f 81/12/1 82/13/1 83/14/1 84/7/1
f 85/11/1 86/12/1 87/7/1 88/5/1
f 89/9/1 90/10/1 91/2/1 92/1/1
f 93/11/1 94/12/1 95/7/1 96/5/1
f 97/19/1 98/20/1 99/21/1 100/22/1
f 101/9/1 102/10/1 103/2/1 104/1/1
f 105/11/1 106/12/1 107/7/1 108/5/1
f 109/9/1 110/10/1 111/2/1 112/1/1
f 113/11/1 114/12/1 115/7/1 116/5/1
f 117/15/1 118/16/1 119/10/1 120/9/1
f 121/16/1 122/17/1 123/11/1 124/10/1
f 125/16/1 126/17/1 127/11/1 128/10/1
f 129/16/1 130/17/1 131/11/1 132/10/1
f 133/16/1 134/17/1 135/11/1 136/10/1
f 137/17/1 138/18/1 139/12/1 140/11/1
f 141/23/1 142/24/1 143/25/1 144/26/1
f 145/19/1 146/20/1 147/21/1 148/22/1
f 149/27/1 150/28/1 151/29/1 152/30/1
f 153/28/1 154/31/1 155/32/1 156/29/1
f 157/31/1 158/33/1 159/34/1 160/32/1
f 161/27/1 162/28/1 163/29/1 164/30/1
f 165/28/1 166/31/1 167/32/1 168/29/1
f 169/31/1 170/33/1 171/34/1 172/32/1
f 173/27/1 174/28/1 175/29/1 176/30/1
f 177/28/1 178/31/1 179/32/1 180/29/1
f 181/31/1 182/33/1 183/34/1 184/32/1

