# Tiled2Unity generated file. Do not modify by hand.
# Wavefront file for 'TestMundo_mesh_0005.obj'

# Vertices (Count = 92)
v -63 -45 0
v -64 -45 0
v -64 -44 0
v -63 -44 0
v -63 -46 0
v -64 -46 0
v -64 -45 0
v -63 -45 0
v -39 -47 0
v -40 -47 0
v -40 -46 0
v -39 -46 0
v -41 -47 0
v -42 -47 0
v -42 -46 0
v -41 -46 0
v -39 -48 0
v -40 -48 0
v -40 -47 0
v -39 -47 0
v -41 -48 0
v -42 -48 0
v -42 -47 0
v -41 -47 0
v -39 -49 0
v -40 -49 0
v -40 -48 0
v -39 -48 0
v -37 -50 0
v -38 -50 0
v -38 -49 0
v -37 -49 0
v -37 -51 0
v -38 -51 0
v -38 -50 0
v -37 -50 0
v -41 -51 0
v -42 -51 0
v -42 -50 0
v -41 -50 0
v -60 -51 0
v -61 -51 0
v -61 -50 0
v -60 -50 0
v -61 -51 0
v -62 -51 0
v -62 -50 0
v -61 -50 0
v -41 -52 0
v -42 -52 0
v -42 -51 0
v -41 -51 0
v -60 -52 0
v -61 -52 0
v -61 -51 0
v -60 -51 0
v -61 -52 0
v -62 -52 0
v -62 -51 0
v -61 -51 0
v -38 -53 0
v -39 -53 0
v -39 -52 0
v -38 -52 0
v -40 -53 0
v -41 -53 0
v -41 -52 0
v -40 -52 0
v -60 -53 0
v -61 -53 0
v -61 -52 0
v -60 -52 0
v -61 -53 0
v -62 -53 0
v -62 -52 0
v -61 -52 0
v -38 -54 0
v -39 -54 0
v -39 -53 0
v -38 -53 0
v -40 -54 0
v -41 -54 0
v -41 -53 0
v -40 -53 0
v -47 -61 0
v -48 -61 0
v -48 -60 0
v -47 -60 0
v -53 -61 0
v -54 -61 0
v -54 -60 0
v -53 -60 0

# Texture cooridinates (Count = 33)
vt 0.5 0.1875
vt 0.5625 0.1875
vt 0.5625 0.25
vt 0.5 0.25
vt 0.5 0.125
vt 0.5625 0.125
vt 0.375 0.375
vt 0.4375 0.375
vt 0.4375 0.4375
vt 0.375 0.4375
vt 0.1875 0.5625
vt 0.25 0.5625
vt 0.25 0.625
vt 0.1875 0.625
vt 0.3125 0.375
vt 0.3125 0.4375
vt 0.125 0.3125
vt 0.1875 0.3125
vt 0.1875 0.375
vt 0.125 0.375
vt 0.25 0.3125
vt 0.25 0.375
vt 0.125 0.25
vt 0.1875 0.25
vt 0.25 0.25
vt 0.625 0.1875
vt 0.625 0.25
vt 0.125 0.1875
vt 0.1875 0.1875
vt 0.25 0.1875
vt 0.625 0.125
vt 0.625 0.3125
vt 0.5625 0.3125

# Normal
vn 0 0 -1

# Mesh description
g TestMundo_mesh_0005

# Faces
f 1/1/1 2/2/1 3/3/1 4/4/1
f 5/5/1 6/6/1 7/2/1 8/1/1
f 9/1/1 10/2/1 11/3/1 12/4/1
f 13/7/1 14/8/1 15/9/1 16/10/1
f 17/5/1 18/6/1 19/2/1 20/1/1
f 21/11/1 22/12/1 23/13/1 24/14/1
f 25/15/1 26/7/1 27/10/1 28/16/1
f 29/7/1 30/8/1 31/9/1 32/10/1
f 33/11/1 34/12/1 35/13/1 36/14/1
f 37/7/1 38/8/1 39/9/1 40/10/1
f 41/17/1 42/18/1 43/19/1 44/20/1
f 45/18/1 46/21/1 47/22/1 48/19/1
f 49/11/1 50/12/1 51/13/1 52/14/1
f 53/23/1 54/24/1 55/18/1 56/17/1
f 57/24/1 58/25/1 59/21/1 60/18/1
f 61/2/1 62/26/1 63/27/1 64/3/1
f 65/2/1 66/26/1 67/27/1 68/3/1
f 69/28/1 70/29/1 71/24/1 72/23/1
f 73/29/1 74/30/1 75/25/1 76/24/1
f 77/6/1 78/31/1 79/26/1 80/2/1
f 81/6/1 82/31/1 83/26/1 84/2/1
f 85/3/1 86/27/1 87/32/1 88/33/1
f 89/3/1 90/27/1 91/32/1 92/33/1

