# Tiled2Unity generated file. Do not modify by hand.
# Wavefront file for 'MapaPruebas_mesh_0004.obj'

# Vertices (Count = 280)
v -6 -3 0
v -7 -3 0
v -7 -2 0
v -6 -2 0
v -7 -3 0
v -8 -3 0
v -8 -2 0
v -7 -2 0
v -8 -3 0
v -9 -3 0
v -9 -2 0
v -8 -2 0
v -9 -3 0
v -10 -3 0
v -10 -2 0
v -9 -2 0
v -10 -3 0
v -11 -3 0
v -11 -2 0
v -10 -2 0
v -6 -4 0
v -7 -4 0
v -7 -3 0
v -6 -3 0
v -10 -4 0
v -11 -4 0
v -11 -3 0
v -10 -3 0
v -20 -4 0
v -21 -4 0
v -21 -3 0
v -20 -3 0
v -34 -4 0
v -35 -4 0
v -35 -3 0
v -34 -3 0
v -6 -5 0
v -7 -5 0
v -7 -4 0
v -6 -4 0
v -7 -5 0
v -8 -5 0
v -8 -4 0
v -7 -4 0
v -9 -5 0
v -10 -5 0
v -10 -4 0
v -9 -4 0
v -10 -5 0
v -11 -5 0
v -11 -4 0
v -10 -4 0
v -20 -5 0
v -21 -5 0
v -21 -4 0
v -20 -4 0
v -34 -5 0
v -35 -5 0
v -35 -4 0
v -34 -4 0
v -6 -6 0
v -7 -6 0
v -7 -5 0
v -6 -5 0
v -7 -6 0
v -8 -6 0
v -8 -5 0
v -7 -5 0
v -9 -6 0
v -10 -6 0
v -10 -5 0
v -9 -5 0
v -10 -6 0
v -11 -6 0
v -11 -5 0
v -10 -5 0
v -20 -6 0
v -21 -6 0
v -21 -5 0
v -20 -5 0
v -34 -6 0
v -35 -6 0
v -35 -5 0
v -34 -5 0
v -6 -7 0
v -7 -7 0
v -7 -6 0
v -6 -6 0
v -10 -7 0
v -11 -7 0
v -11 -6 0
v -10 -6 0
v -20 -7 0
v -21 -7 0
v -21 -6 0
v -20 -6 0
v -34 -7 0
v -35 -7 0
v -35 -6 0
v -34 -6 0
v -6 -8 0
v -7 -8 0
v -7 -7 0
v -6 -7 0
v -10 -8 0
v -11 -8 0
v -11 -7 0
v -10 -7 0
v -20 -8 0
v -21 -8 0
v -21 -7 0
v -20 -7 0
v -34 -8 0
v -35 -8 0
v -35 -7 0
v -34 -7 0
v -6 -9 0
v -7 -9 0
v -7 -8 0
v -6 -8 0
v -10 -9 0
v -11 -9 0
v -11 -8 0
v -10 -8 0
v -20 -9 0
v -21 -9 0
v -21 -8 0
v -20 -8 0
v -34 -9 0
v -35 -9 0
v -35 -8 0
v -34 -8 0
v -6 -10 0
v -7 -10 0
v -7 -9 0
v -6 -9 0
v -10 -10 0
v -11 -10 0
v -11 -9 0
v -10 -9 0
v -20 -10 0
v -21 -10 0
v -21 -9 0
v -20 -9 0
v -34 -10 0
v -35 -10 0
v -35 -9 0
v -34 -9 0
v -7 -11 0
v -8 -11 0
v -8 -10 0
v -7 -10 0
v -8 -11 0
v -9 -11 0
v -9 -10 0
v -8 -10 0
v -9 -11 0
v -10 -11 0
v -10 -10 0
v -9 -10 0
v -20 -11 0
v -21 -11 0
v -21 -10 0
v -20 -10 0
v -21 -11 0
v -22 -11 0
v -22 -10 0
v -21 -10 0
v -22 -11 0
v -23 -11 0
v -23 -10 0
v -22 -10 0
v -23 -11 0
v -24 -11 0
v -24 -10 0
v -23 -10 0
v -24 -11 0
v -25 -11 0
v -25 -10 0
v -24 -10 0
v -25 -11 0
v -26 -11 0
v -26 -10 0
v -25 -10 0
v -26 -11 0
v -27 -11 0
v -27 -10 0
v -26 -10 0
v -27 -11 0
v -28 -11 0
v -28 -10 0
v -27 -10 0
v -28 -11 0
v -29 -11 0
v -29 -10 0
v -28 -10 0
v -29 -11 0
v -30 -11 0
v -30 -10 0
v -29 -10 0
v -31 -11 0
v -32 -11 0
v -32 -10 0
v -31 -10 0
v -32 -11 0
v -33 -11 0
v -33 -10 0
v -32 -10 0
v -33 -11 0
v -34 -11 0
v -34 -10 0
v -33 -10 0
v -34 -11 0
v -35 -11 0
v -35 -10 0
v -34 -10 0
v -20 -12 0
v -21 -12 0
v -21 -11 0
v -20 -11 0
v -34 -12 0
v -35 -12 0
v -35 -11 0
v -34 -11 0
v -20 -13 0
v -21 -13 0
v -21 -12 0
v -20 -12 0
v -34 -13 0
v -35 -13 0
v -35 -12 0
v -34 -12 0
v -20 -14 0
v -21 -14 0
v -21 -13 0
v -20 -13 0
v -21 -14 0
v -22 -14 0
v -22 -13 0
v -21 -13 0
v -22 -14 0
v -23 -14 0
v -23 -13 0
v -22 -13 0
v -23 -14 0
v -24 -14 0
v -24 -13 0
v -23 -13 0
v -24 -14 0
v -25 -14 0
v -25 -13 0
v -24 -13 0
v -25 -14 0
v -26 -14 0
v -26 -13 0
v -25 -13 0
v -26 -14 0
v -27 -14 0
v -27 -13 0
v -26 -13 0
v -27 -14 0
v -28 -14 0
v -28 -13 0
v -27 -13 0
v -28 -14 0
v -29 -14 0
v -29 -13 0
v -28 -13 0
v -32 -14 0
v -33 -14 0
v -33 -13 0
v -32 -13 0
v -33 -14 0
v -34 -14 0
v -34 -13 0
v -33 -13 0
v -34 -14 0
v -35 -14 0
v -35 -13 0
v -34 -13 0

# Texture cooridinates (Count = 28)
vt 0.4166667 0.8888889
vt 0.5 0.8888889
vt 0.5 1
vt 0.4166667 1
vt 0.5833333 0.8888889
vt 0.5833333 1
vt 0.6666667 0.8888889
vt 0.6666667 1
vt 0.4166667 0.7777778
vt 0.5 0.7777778
vt 0.5833333 0.7777778
vt 0.6666667 0.7777778
vt 0.4166667 0.6666666
vt 0.5 0.6666666
vt 0.5833333 0.6666666
vt 0.6666667 0.6666666
vt 0.4166667 0.5555556
vt 0.5 0.5555556
vt 0.5833333 0.5555556
vt 0.6666667 0.5555556
vt 0.4166667 0.4444444
vt 0.5 0.4444444
vt 0.5833333 0.4444444
vt 0.6666667 0.4444444
vt 0.08333334 0
vt 0.1666667 0
vt 0.1666667 0.1111111
vt 0.08333334 0.1111111

# Normal
vn 0 0 -1

# Mesh description
g MapaPruebas_mesh_0004

# Faces
f 1/1/1 2/2/1 3/3/1 4/4/1
f 5/2/1 6/5/1 7/6/1 8/3/1
f 9/2/1 10/5/1 11/6/1 12/3/1
f 13/2/1 14/5/1 15/6/1 16/3/1
f 17/5/1 18/7/1 19/8/1 20/6/1
f 21/9/1 22/10/1 23/2/1 24/1/1
f 25/11/1 26/12/1 27/7/1 28/5/1
f 29/9/1 30/10/1 31/2/1 32/1/1
f 33/11/1 34/12/1 35/7/1 36/5/1
f 37/9/1 38/10/1 39/2/1 40/1/1
f 41/11/1 42/12/1 43/7/1 44/5/1
f 45/9/1 46/10/1 47/2/1 48/1/1
f 49/11/1 50/12/1 51/7/1 52/5/1
f 53/9/1 54/10/1 55/2/1 56/1/1
f 57/11/1 58/12/1 59/7/1 60/5/1
f 61/13/1 62/14/1 63/10/1 64/9/1
f 65/15/1 66/16/1 67/12/1 68/11/1
f 69/13/1 70/14/1 71/10/1 72/9/1
f 73/15/1 74/16/1 75/12/1 76/11/1
f 77/9/1 78/10/1 79/2/1 80/1/1
f 81/11/1 82/12/1 83/7/1 84/5/1
f 85/17/1 86/18/1 87/14/1 88/13/1
f 89/19/1 90/20/1 91/16/1 92/15/1
f 93/9/1 94/10/1 95/2/1 96/1/1
f 97/11/1 98/12/1 99/7/1 100/5/1
f 101/17/1 102/18/1 103/14/1 104/13/1
f 105/19/1 106/20/1 107/16/1 108/15/1
f 109/9/1 110/10/1 111/2/1 112/1/1
f 113/11/1 114/12/1 115/7/1 116/5/1
f 117/17/1 118/18/1 119/14/1 120/13/1
f 121/19/1 122/20/1 123/16/1 124/15/1
f 125/9/1 126/10/1 127/2/1 128/1/1
f 129/11/1 130/12/1 131/7/1 132/5/1
f 133/21/1 134/22/1 135/18/1 136/17/1
f 137/23/1 138/24/1 139/20/1 140/19/1
f 141/9/1 142/10/1 143/2/1 144/1/1
f 145/11/1 146/12/1 147/7/1 148/5/1
f 149/25/1 150/26/1 151/27/1 152/28/1
f 153/25/1 154/26/1 155/27/1 156/28/1
f 157/25/1 158/26/1 159/27/1 160/28/1
f 161/13/1 162/14/1 163/10/1 164/9/1
f 165/14/1 166/15/1 167/11/1 168/10/1
f 169/14/1 170/15/1 171/11/1 172/10/1
f 173/14/1 174/15/1 175/11/1 176/10/1
f 177/14/1 178/15/1 179/11/1 180/10/1
f 181/14/1 182/15/1 183/11/1 184/10/1
f 185/14/1 186/15/1 187/11/1 188/10/1
f 189/14/1 190/15/1 191/11/1 192/10/1
f 193/14/1 194/15/1 195/11/1 196/10/1
f 197/14/1 198/15/1 199/11/1 200/10/1
f 201/14/1 202/15/1 203/11/1 204/10/1
f 205/14/1 206/15/1 207/11/1 208/10/1
f 209/14/1 210/15/1 211/11/1 212/10/1
f 213/15/1 214/16/1 215/12/1 216/11/1
f 217/17/1 218/18/1 219/14/1 220/13/1
f 221/19/1 222/20/1 223/16/1 224/15/1
f 225/17/1 226/18/1 227/14/1 228/13/1
f 229/19/1 230/20/1 231/16/1 232/15/1
f 233/21/1 234/22/1 235/18/1 236/17/1
f 237/22/1 238/23/1 239/19/1 240/18/1
f 241/22/1 242/23/1 243/19/1 244/18/1
f 245/22/1 246/23/1 247/19/1 248/18/1
f 249/22/1 250/23/1 251/19/1 252/18/1
f 253/22/1 254/23/1 255/19/1 256/18/1
f 257/22/1 258/23/1 259/19/1 260/18/1
f 261/22/1 262/23/1 263/19/1 264/18/1
f 265/22/1 266/23/1 267/19/1 268/18/1
f 269/22/1 270/23/1 271/19/1 272/18/1
f 273/22/1 274/23/1 275/19/1 276/18/1
f 277/23/1 278/24/1 279/20/1 280/19/1

