# Tiled2Unity generated file. Do not modify by hand.
# Wavefront file for 'MapaPruebas_mesh_0009.obj'

# Vertices (Count = 20)
v -26 -6 0
v -27 -6 0
v -27 -5 0
v -26 -5 0
v -26 -7 0
v -27 -7 0
v -27 -6 0
v -26 -6 0
v -26 -8 0
v -27 -8 0
v -27 -7 0
v -26 -7 0
v -31 -9 0
v -32 -9 0
v -32 -8 0
v -31 -8 0
v -32 -9 0
v -33 -9 0
v -33 -8 0
v -32 -8 0

# Texture cooridinates (Count = 16)
vt 0.3125 0.75
vt 0.375 0.75
vt 0.375 0.8125
vt 0.3125 0.8125
vt 0.1875 0.75
vt 0.25 0.75
vt 0.25 0.8125
vt 0.1875 0.8125
vt 0.125 0.75
vt 0.125 0.8125
vt 0 0.375
vt 0.0625 0.375
vt 0.0625 0.4375
vt 0 0.4375
vt 0.125 0.375
vt 0.125 0.4375

# Normal
vn 0 0 -1

# Mesh description
g MapaPruebas_mesh_0009

# Faces
f 1/1/1 2/2/1 3/3/1 4/4/1
f 5/5/1 6/6/1 7/7/1 8/8/1
f 9/9/1 10/5/1 11/8/1 12/10/1
f 13/11/1 14/12/1 15/13/1 16/14/1
f 17/12/1 18/15/1 19/16/1 20/13/1

