# Tiled2Unity generated file. Do not modify by hand.
# Wavefront file for 'Casa_mesh_0002.obj'

# Vertices (Count = 236)
v -4 -1 0
v -5 -1 0
v -5 0 0
v -4 0 0
v -13 -1 0
v -14 -1 0
v -14 0 0
v -13 0 0
v -14 -1 0
v -15 -1 0
v -15 0 0
v -14 0 0
v -15 -1 0
v -16 -1 0
v -16 0 0
v -15 0 0
v -16 -1 0
v -17 -1 0
v -17 0 0
v -16 0 0
v -17 -1 0
v -18 -1 0
v -18 0 0
v -17 0 0
v -23 -1 0
v -24 -1 0
v -24 0 0
v -23 0 0
v -25 -1 0
v -26 -1 0
v -26 0 0
v -25 0 0
v -28 -1 0
v -29 -1 0
v -29 0 0
v -28 0 0
v -4 -2 0
v -5 -2 0
v -5 -1 0
v -4 -1 0
v -15 -2 0
v -16 -2 0
v -16 -1 0
v -15 -1 0
v -25 -2 0
v -26 -2 0
v -26 -1 0
v -25 -1 0
v -28 -2 0
v -29 -2 0
v -29 -1 0
v -28 -1 0
v -2 -3 0
v -3 -3 0
v -3 -2 0
v -2 -2 0
v -13 -3 0
v -14 -3 0
v -14 -2 0
v -13 -2 0
v -15 -3 0
v -16 -3 0
v -16 -2 0
v -15 -2 0
v -17 -3 0
v -18 -3 0
v -18 -2 0
v -17 -2 0
v -26 -3 0
v -27 -3 0
v -27 -2 0
v -26 -2 0
v -27 -3 0
v -28 -3 0
v -28 -2 0
v -27 -2 0
v -1 -4 0
v -2 -4 0
v -2 -3 0
v -1 -3 0
v -2 -4 0
v -3 -4 0
v -3 -3 0
v -2 -3 0
v -3 -4 0
v -4 -4 0
v -4 -3 0
v -3 -3 0
v -4 -4 0
v -5 -4 0
v -5 -3 0
v -4 -3 0
v -13 -4 0
v -14 -4 0
v -14 -3 0
v -13 -3 0
v -17 -4 0
v -18 -4 0
v -18 -3 0
v -17 -3 0
v -26 -4 0
v -27 -4 0
v -27 -3 0
v -26 -3 0
v -1 -5 0
v -2 -5 0
v -2 -4 0
v -1 -4 0
v -2 -5 0
v -3 -5 0
v -3 -4 0
v -2 -4 0
v -3 -5 0
v -4 -5 0
v -4 -4 0
v -3 -4 0
v -26 -5 0
v -27 -5 0
v -27 -4 0
v -26 -4 0
v -2 -6 0
v -3 -6 0
v -3 -5 0
v -2 -5 0
v -1 -8 0
v -2 -8 0
v -2 -7 0
v -1 -7 0
v -1 -9 0
v -2 -9 0
v -2 -8 0
v -1 -8 0
v -2 -9 0
v -3 -9 0
v -3 -8 0
v -2 -8 0
v -1 -10 0
v -2 -10 0
v -2 -9 0
v -1 -9 0
v -2 -10 0
v -3 -10 0
v -3 -9 0
v -2 -9 0
v -1 -11 0
v -2 -11 0
v -2 -10 0
v -1 -10 0
v -2 -11 0
v -3 -11 0
v -3 -10 0
v -2 -10 0
v -1 -12 0
v -2 -12 0
v -2 -11 0
v -1 -11 0
v -2 -12 0
v -3 -12 0
v -3 -11 0
v -2 -11 0
v -1 -14 0
v -2 -14 0
v -2 -13 0
v -1 -13 0
v -2 -14 0
v -3 -14 0
v -3 -13 0
v -2 -13 0
v -1 -15 0
v -2 -15 0
v -2 -14 0
v -1 -14 0
v -2 -15 0
v -3 -15 0
v -3 -14 0
v -2 -14 0
v -25 -15 0
v -26 -15 0
v -26 -14 0
v -25 -14 0
v -26 -15 0
v -27 -15 0
v -27 -14 0
v -26 -14 0
v -27 -15 0
v -28 -15 0
v -28 -14 0
v -27 -14 0
v -28 -15 0
v -29 -15 0
v -29 -14 0
v -28 -14 0
v -25 -16 0
v -26 -16 0
v -26 -15 0
v -25 -15 0
v -26 -16 0
v -27 -16 0
v -27 -15 0
v -26 -15 0
v -27 -16 0
v -28 -16 0
v -28 -15 0
v -27 -15 0
v -28 -16 0
v -29 -16 0
v -29 -15 0
v -28 -15 0
v -26 -17 0
v -27 -17 0
v -27 -16 0
v -26 -16 0
v -27 -17 0
v -28 -17 0
v -28 -16 0
v -27 -16 0
v -28 -17 0
v -29 -17 0
v -29 -16 0
v -28 -16 0
v -13 -18 0
v -14 -18 0
v -14 -17 0
v -13 -17 0
v -17 -18 0
v -18 -18 0
v -18 -17 0
v -17 -17 0
v -13 -19 0
v -14 -19 0
v -14 -18 0
v -13 -18 0
v -17 -19 0
v -18 -19 0
v -18 -18 0
v -17 -18 0

# Texture cooridinates (Count = 90)
vt 0.4583333 0.75
vt 0.5 0.75
vt 0.5 0.8125
vt 0.4583333 0.8125
vt 0.2916667 0.8125
vt 0.3333333 0.8125
vt 0.3333333 0.875
vt 0.2916667 0.875
vt 0.1666667 0.6875
vt 0.2083333 0.6875
vt 0.2083333 0.75
vt 0.1666667 0.75
vt 0.7916667 0.9375
vt 0.8333333 0.9375
vt 0.8333333 1
vt 0.7916667 1
vt 0.625 0.875
vt 0.6666667 0.875
vt 0.6666667 0.9375
vt 0.625 0.9375
vt 0.25 0.6875
vt 0.25 0.75
vt 0.4583333 0.6875
vt 0.5 0.6875
vt 0.7916667 0.875
vt 0.8333333 0.875
vt 0.2083333 0.625
vt 0.25 0.625
vt 0.2916667 0.9375
vt 0.3333333 0.9375
vt 0.3333333 1
vt 0.2916667 1
vt 0.5833333 0.8125
vt 0.625 0.8125
vt 0.5833333 0.875
vt 0.7916667 0.8125
vt 0.8333333 0.8125
vt 0.25 0.9375
vt 0.25 1
vt 0.08333334 0.6875
vt 0.125 0.6875
vt 0.125 0.75
vt 0.08333334 0.75
vt 0.375 0.9375
vt 0.375 1
vt 0.4166667 0.9375
vt 0.4166667 1
vt 0.4583333 0.9375
vt 0.4583333 1
vt 0.5833333 0.75
vt 0.625 0.75
vt 0.25 0.875
vt 0.375 0.8125
vt 0.375 0.875
vt 0.4166667 0.8125
vt 0.4166667 0.875
vt 0.4583333 0.875
vt 0.25 0.8125
vt 0.2083333 0.5
vt 0.25 0.5
vt 0.25 0.5625
vt 0.2083333 0.5625
vt 0 0.75
vt 0.04166667 0.75
vt 0.04166667 0.8125
vt 0 0.8125
vt 0.08333334 0.8125
vt 0 0.6875
vt 0.04166667 0.6875
vt 0.6666667 0.8125
vt 0.5833333 0.625
vt 0.625 0.625
vt 0.625 0.6875
vt 0.5833333 0.6875
vt 0.6666667 0.625
vt 0.6666667 0.6875
vt 0.7083333 0.625
vt 0.7083333 0.6875
vt 0.5833333 0.5625
vt 0.625 0.5625
vt 0.6666667 0.5625
vt 0.7083333 0.5625
vt 0.5833333 0.5
vt 0.625 0.5
vt 0.6666667 0.5
vt 0.7083333 0.5
vt 0.7083333 0.9375
vt 0.7083333 1
vt 0.6666667 1
vt 0.5833333 0.9375

# Normal
vn 0 0 -1

# Mesh description
g Casa_mesh_0002

# Faces
f 1/1/1 2/2/1 3/3/1 4/4/1
f 5/5/1 6/6/1 7/7/1 8/8/1
f 9/9/1 10/10/1 11/11/1 12/12/1
f 13/13/1 14/14/1 15/15/1 16/16/1
f 17/9/1 18/10/1 19/11/1 20/12/1
f 21/5/1 22/6/1 23/7/1 24/8/1
f 25/17/1 26/18/1 27/19/1 28/20/1
f 29/10/1 30/21/1 31/22/1 32/11/1
f 33/10/1 34/21/1 35/22/1 36/11/1
f 37/23/1 38/24/1 39/2/1 40/1/1
f 41/25/1 42/26/1 43/14/1 44/13/1
f 45/27/1 46/28/1 47/21/1 48/10/1
f 49/27/1 50/28/1 51/21/1 52/10/1
f 53/29/1 54/30/1 55/31/1 56/32/1
f 57/33/1 58/34/1 59/17/1 60/35/1
f 61/36/1 62/37/1 63/26/1 64/25/1
f 65/33/1 66/34/1 67/17/1 68/35/1
f 69/38/1 70/29/1 71/32/1 72/39/1
f 73/40/1 74/41/1 75/42/1 76/43/1
f 77/30/1 78/44/1 79/45/1 80/31/1
f 81/44/1 82/46/1 83/47/1 84/45/1
f 85/46/1 86/48/1 87/49/1 88/47/1
f 89/29/1 90/30/1 91/31/1 92/32/1
f 93/50/1 94/51/1 95/34/1 96/33/1
f 97/50/1 98/51/1 99/34/1 100/33/1
f 101/52/1 102/8/1 103/29/1 104/38/1
f 105/6/1 106/53/1 107/54/1 108/7/1
f 109/53/1 110/55/1 111/56/1 112/54/1
f 113/55/1 114/4/1 115/57/1 116/56/1
f 117/58/1 118/5/1 119/8/1 120/52/1
f 121/29/1 122/30/1 123/31/1 124/32/1
f 125/59/1 126/60/1 127/61/1 128/62/1
f 129/62/1 130/61/1 131/28/1 132/27/1
f 133/59/1 134/60/1 135/61/1 136/62/1
f 137/62/1 138/61/1 139/28/1 140/27/1
f 141/59/1 142/60/1 143/61/1 144/62/1
f 145/63/1 146/64/1 147/65/1 148/66/1
f 149/64/1 150/43/1 151/67/1 152/65/1
f 153/68/1 154/69/1 155/64/1 156/63/1
f 157/69/1 158/40/1 159/43/1 160/64/1
f 161/30/1 162/44/1 163/45/1 164/31/1
f 165/46/1 166/48/1 167/49/1 168/47/1
f 169/6/1 170/53/1 171/54/1 172/7/1
f 173/55/1 174/4/1 175/57/1 176/56/1
f 177/34/1 178/70/1 179/18/1 180/17/1
f 181/71/1 182/72/1 183/73/1 184/74/1
f 185/72/1 186/75/1 187/76/1 188/73/1
f 189/75/1 190/77/1 191/78/1 192/76/1
f 193/50/1 194/51/1 195/34/1 196/33/1
f 197/79/1 198/80/1 199/72/1 200/71/1
f 201/80/1 202/81/1 203/75/1 204/72/1
f 205/81/1 206/82/1 207/77/1 208/75/1
f 209/83/1 210/84/1 211/80/1 212/79/1
f 213/40/1 214/41/1 215/42/1 216/43/1
f 217/85/1 218/86/1 219/82/1 220/81/1
f 221/19/1 222/87/1 223/88/1 224/89/1
f 225/19/1 226/87/1 227/88/1 228/89/1
f 229/35/1 230/17/1 231/20/1 232/90/1
f 233/35/1 234/17/1 235/20/1 236/90/1

